Coordinates
version=1
nRows=23
nColumns=30
inDegrees=yes

Units are S.I. units (second, meters, Newtons, ...)
Angles are in degrees.

endheader
time	floatyaw	floatroll	floatpitch	floatx	floaty	floatz	pro_sup_l	deviation_l	flexion_l	cmc_flexion_l	cmc_abduction_l	mp_flexion_l	ip_flexion_l	2mcp_flexion_l	2mcp_abduction_l	2pm_flexion_l	2md_flexion_l	3mcp_flexion_l	3mcp_abduction_l	3pm_flexion_l	3md_flexion_l	4mcp_flexion_l	4mcp_abduction_l	4pm_flexion_l	4md_flexion_l	5mcp_flexion_l	5mcp_abduction_l	5pm_flexion_l	5md_flexion_l
0.005000	-3.995636	-4.876138	96.430707	0.057607	-0.143875	0.045273	90.349177	19.096548	-14.988232	10.499715	30.447353	-35.355715	-57.979144	63.842863	7.012683	56.796480	48.740733	56.032109	4.702002	67.021917	51.936094	52.886518	-6.287192	89.363491	66.073086	51.835801	-4.550463	89.994566	49.052136
0.015000	-3.995636	-4.876138	96.430707	0.057850	-0.143188	0.044959	89.160720	19.223030	-16.252274	10.401824	30.531617	-35.716032	-58.432666	64.280330	6.947114	56.777909	49.017375	56.397960	4.686135	67.230910	52.256606	53.304189	-6.276432	89.703251	66.428374	52.257612	-4.543104	90.472807	49.150072
0.025000	-3.995636	-4.876138	96.430707	0.058117	-0.141791	0.044782	88.131015	19.305678	-17.471738	10.238038	30.545834	-36.061429	-58.869597	64.746828	6.884098	56.772984	49.273997	56.791681	4.672752	67.394229	52.572787	53.695848	-6.269287	90.012364	66.761706	52.622047	-4.561090	90.925775	49.245278
0.035000	-3.995636	-4.876138	96.430707	0.058397	-0.139760	0.044723	87.446823	19.394994	-18.559777	10.031409	30.507628	-36.350391	-59.246678	65.258520	6.823767	56.698884	49.458310	57.226797	4.659664	67.433063	52.818028	54.079136	-6.266583	90.226462	67.021268	52.954043	-4.597840	91.262703	49.314008
0.045000	-3.995636	-4.876138	96.430707	0.058673	-0.137401	0.044713	87.180031	19.544505	-19.453454	9.831393	30.445468	-36.552634	-59.528062	65.800373	6.766447	56.500847	49.508463	57.693143	4.644927	67.302588	52.947188	54.463411	-6.267181	90.308178	67.171302	53.275188	-4.640031	91.425935	49.352746
0.055000	-3.995636	-4.876138	96.430707	0.058921	-0.135159	0.044663	87.257201	19.788887	-20.124227	9.693588	30.391180	-36.657998	-59.695258	66.324446	6.712510	56.177534	49.383514	58.154401	4.627991	67.012063	52.954562	54.841016	-6.268608	90.260154	67.207122	53.588212	-4.672986	91.408509	49.380247
0.065000	-3.995636	-4.876138	96.430707	0.059116	-0.133453	0.044499	87.499005	20.127109	-20.577039	9.651278	30.368834	-36.677317	-59.752014	66.763351	6.662226	55.784222	49.091598	58.557326	4.610154	66.622933	52.874424	55.185766	-6.268368	90.119030	67.157176	53.872571	-4.686847	91.249312	49.425220
0.075000	-3.995636	-4.876138	96.430707	0.059239	-0.132510	0.044200	87.711490	20.521510	-20.841455	9.697905	30.384766	-36.636206	-59.722318	67.056071	6.615916	55.407765	48.696126	58.850861	4.593922	66.222782	52.762700	55.461327	-6.265187	89.934070	67.069811	54.093723	-4.680226	91.009636	49.506443
0.085000	-3.995636	-4.876138	96.430707	0.059283	-0.132293	0.043802	87.775847	20.914962	-20.960445	9.793706	30.423534	-36.565531	-59.642064	67.173966	6.574234	55.124669	48.292669	59.006290	4.581652	65.887927	52.670164	55.636371	-6.259499	89.744307	66.991476	54.220287	-4.659479	90.746003	49.618304
0.095000	-3.995636	-4.876138	96.430707	0.059253	-0.132557	0.043374	87.684533	21.256563	-20.980482	9.891252	30.451584	-36.492361	-59.546910	67.132660	6.538129	54.966340	47.968056	59.028044	4.574379	65.654952	52.622127	55.698623	-6.252931	89.567521	66.947767	54.239232	-4.634530	90.493581	49.731452
0.105000	-3.995636	-4.876138	96.430707	0.059167	-0.132983	0.042986	87.510517	21.521020	-20.943422	9.960746	30.426272	-36.433826	-59.460463	66.983493	6.508424	54.911722	47.764375	58.950014	4.571601	65.515510	52.613665	55.660022	-6.247248	89.404469	66.936021	54.161601	-4.614039	90.264932	49.807993
0.115000	-3.995636	-4.876138	96.430707	0.059050	-0.133320	0.042678	87.341299	21.712094	-20.880085	9.999020	30.306732	-36.395197	-59.387834	66.790383	6.485376	54.908810	47.666767	58.820086	4.572030	65.433835	52.619074	55.550676	-6.243457	89.251629	66.931198	54.017382	-4.602491	90.059374	49.821324
0.125000	-3.995636	-4.876138	96.430707	0.058926	-0.133464	0.042451	87.225204	21.851377	-20.807215	10.021056	30.064267	-36.372347	-59.318366	66.605250	6.468669	54.908083	47.619475	58.681260	4.574623	65.373317	52.607931	55.406049	-6.241538	89.112054	66.900669	53.843501	-4.600040	89.874361	49.768615
0.135000	-3.995636	-4.876138	96.430707	0.058810	-0.133443	0.042279	87.157930	21.961659	-20.729684	10.044741	29.690517	-36.357042	-59.236637	66.453800	6.457855	54.885905	47.560051	58.558521	4.579129	65.315190	52.560386	55.254927	-6.240782	88.997157	66.821007	53.671006	-4.604280	89.712079	49.669253
0.145000	-3.995636	-4.876138	96.430707	0.058705	-0.133354	0.042135	87.104360	22.054858	-20.646977	10.080199	29.200753	-36.342171	-59.135329	66.335790	6.452876	54.846188	47.454062	58.456453	4.585882	65.259969	52.477387	55.113577	-6.240361	88.919102	66.690468	53.516599	-4.612362	89.579048	49.551599
0.155000	-3.995636	-4.876138	96.430707	0.058606	-0.133295	0.042004	87.030756	22.129473	-20.559824	10.127808	28.629723	-36.324406	-59.021726	66.235492	6.454217	54.804794	47.313339	58.366054	4.595152	65.214994	52.382999	54.986573	-6.239769	88.880012	66.532356	53.380907	-4.622304	89.481030	49.437309
0.165000	-3.995636	-4.876138	96.430707	0.058503	-0.133317	0.041886	86.924541	22.176153	-20.472779	10.181941	28.020263	-36.303670	-58.913579	66.134023	6.462364	54.771546	47.188464	58.274526	4.606608	65.180435	52.316241	54.870918	-6.238959	88.866549	66.386519	53.252628	-4.633201	89.417586	49.332884
0.175000	-3.995636	-4.876138	96.430707	0.058386	-0.133423	0.041790	86.794093	22.186098	-20.391792	10.235120	27.409168	-36.280527	-58.826885	66.017187	6.476762	54.742832	47.138592	58.171915	4.619252	65.145138	52.312905	54.759622	-6.238223	88.854765	66.290425	53.115624	-4.644682	89.379712	49.231900
0.185000	-3.995636	-4.876138	96.430707	0.058248	-0.133582	0.041722	86.655463	22.157067	-20.319442	10.279634	26.816845	-36.253473	-58.763434	65.877391	6.494931	54.707436	47.194659	58.052333	4.631799	65.094484	52.384698	54.643272	-6.237939	88.822693	66.257884	52.955805	-4.656258	89.351583	49.124088
0.195000	-3.995636	-4.876138	96.430707	0.058088	-0.133752	0.041679	86.518652	22.094599	-20.251758	10.307594	26.244735	-36.218146	-58.706594	65.711811	6.512552	54.658463	47.337718	57.911617	4.643249	65.022874	52.508320	54.510753	-6.238276	88.762544	66.267938	52.765642	-4.667060	89.315458	49.004341
0.205000	-3.995636	-4.876138	96.430707	0.057909	-0.133906	0.041650	86.382672	22.009273	-20.179070	10.311957	25.680224	-36.169309	-58.628899	65.519837	6.524773	54.601437	47.506239	57.745092	4.653260	64.940643	52.633284	54.351093	-6.238989	88.684598	66.272530	52.545555	-4.676104	89.257650	48.876369
0.215000	-3.995636	-4.876138	96.430707	0.057714	-0.134028	0.041620	86.240640	21.912608	-20.090527	10.289281	25.106554	-36.104295	-58.507115	65.301826	6.528153	54.552992	47.627558	57.548049	4.662174	64.870223	52.705030	54.157068	-6.239396	88.610309	66.219834	52.302631	-4.682803	89.172727	48.749781
0.225000	-3.995636	-4.876138	96.430707	0.057511	-0.134119	0.041578	86.089213	21.814044	-19.979687	10.242307	24.514430	-36.025242	-58.335229	65.059799	6.522177	54.531777	47.653278	57.318992	4.670722	64.834284	52.689409	53.929083	-6.238617	88.559039	66.079627	52.047876	-4.687246	89.063612	48.633613
